<?xml version="1.0" standalone="no"?>
<!DOCTYPE svg PUBLIC "-//W3C//DTD SVG 20010904//EN"
 "http://www.w3.org/TR/2001/REC-SVG-20010904/DTD/svg10.dtd">
<svg version="1.0" xmlns="http://www.w3.org/2000/svg"
 width="16.000000pt" height="16.000000pt" viewBox="0 0 16.000000 16.000000"
 preserveAspectRatio="xMidYMid meet">
<metadata>
Created by potrace 1.11, written by Peter Selinger 2001-2013
</metadata>
<g transform="translate(0.000000,16.000000) scale(0.007111,-0.007111)"
fill="#000000" stroke="none">
<path d="M1005 2119 c-248 -19 -451 -115 -636 -299 -140 -139 -226 -288 -275
-475 -23 -86 -26 -121 -27 -255 -1 -201 28 -332 105 -483 94 -186 307 -390
493 -472 294 -130 661 -118 933 31 258 141 447 386 519 672 13 50 17 111 18
247 0 157 -3 191 -23 264 -51 186 -135 331 -272 469 -172 173 -396 282 -613
297 -45 4 -91 7 -102 9 -11 1 -65 -1 -120 -5z m-276 -113 c-2 -2 -45 -31 -95
-64 -199 -131 -327 -269 -420 -457 -57 -115 -62 -104 -12 26 72 191 228 356
432 455 83 41 106 50 95 40z m-26 -104 c-203 -122 -366 -300 -437 -477 -31
-75 -38 -78 -19 -8 50 196 217 389 418 484 102 49 117 49 38 1z m23 -68 c-192
-116 -335 -276 -397 -443 -12 -34 -23 -60 -25 -58 -2 1 4 29 12 62 49 186 195
355 386 445 85 40 96 38 24 -6z m79 -32 c-6 -5 -41 -30 -79 -57 -148 -103
-272 -243 -321 -362 -29 -71 -33 -49 -5 32 52 150 170 277 338 361 70 35 83
40 67 26z m-29 -103 c-84 -51 -193 -152 -241 -225 -20 -31 -50 -90 -66 -132
-29 -77 -31 -55 -4 43 32 116 156 253 288 319 96 48 108 45 23 -5z m79 -37
c-6 -4 -36 -25 -69 -47 -120 -80 -218 -196 -252 -297 -22 -66 -28 -56 -9 16
30 114 89 200 178 259 57 38 184 96 152 69z m5 -83 c-70 -42 -160 -121 -197
-172 -21 -28 -48 -81 -60 -117 -26 -75 -31 -51 -7 31 32 106 117 204 222 255
59 29 89 31 42 3z m50 -44 c0 -2 -13 -11 -28 -19 -82 -43 -186 -168 -216 -261
l-16 -50 4 57 c5 69 45 147 94 188 19 16 62 42 96 59 67 33 66 33 66 26z m30
-69 c0 -2 -19 -15 -43 -29 -84 -49 -149 -138 -167 -227 -7 -33 -8 -33 -9 14
-2 92 57 173 163 222 55 26 56 26 56 20z m215 -27 c144 -27 248 -130 275 -273
42 -231 -166 -441 -394 -396 -78 15 -128 41 -180 93 -65 65 -90 126 -94 227
-3 69 0 96 18 143 38 102 138 184 253 206 59 12 57 12 122 0z m296 -586 c-24
-47 -63 -85 -116 -111 -69 -34 -94 -36 -44 -3 91 58 148 133 166 216 l8 40 3
-52 c2 -37 -3 -63 -17 -90z m86 78 c-13 -106 -93 -211 -202 -265 -68 -33 -83
-29 -23 7 106 62 188 162 211 256 15 64 22 66 14 2z m53 -72 c-30 -113 -114
-210 -227 -260 -36 -17 -67 -28 -69 -26 -2 2 22 21 53 42 114 75 221 196 238
268 4 15 9 26 12 23 2 -2 -1 -24 -7 -47z m65 -42 c-36 -113 -121 -206 -248
-273 -38 -20 -70 -34 -73 -31 -2 2 23 21 55 41 123 76 234 202 263 299 7 22
14 35 16 28 2 -7 -4 -35 -13 -64z m135 -52 c-43 -128 -134 -233 -281 -323 -66
-40 -119 -66 -119 -58 0 2 20 16 45 30 145 85 262 212 332 361 43 92 55 87 23
-10z m-83 -2 c-49 -123 -154 -237 -268 -290 -82 -38 -94 -35 -26 7 116 71 273
247 302 338 4 13 9 21 13 18 3 -3 -7 -36 -21 -73z m158 -16 c-50 -153 -193
-312 -354 -396 -96 -49 -144 -63 -71 -20 84 49 190 131 247 192 65 69 145 190
169 258 24 66 31 37 9 -34z m66 -18 c-63 -185 -216 -356 -400 -448 -101 -51
-108 -44 -16 16 185 121 340 287 402 430 15 34 28 61 30 59 2 -1 -5 -27 -16
-57z m70 -20 c-68 -194 -161 -320 -314 -423 -67 -46 -247 -134 -247 -122 0 2
35 24 79 49 195 114 401 334 472 506 28 67 35 60 10 -10z"/>
<path d="M1060 1131 c-16 -32 4 -63 38 -59 24 3 27 7 27 38 0 31 -3 35 -27 38
-19 2 -30 -3 -38 -17z"/>
</g>
</svg>
